# xmcd
#
# Track frame offsets:
#	150
#	17850
#	33675
#	57600
#	75075
#	93375
#	109875
#	132600
#	154425
#	172650
#	187575
#	203625
#	219600
#	235650
#	253050
#	272475
#
# Disc length: 3841 seconds
#
# Revision: 3
# Processed by: cddbd v1.5.2PL0 Copyright (c) Steve Scherf et al.
# Submitted via: audiograbber 1.83.01
#
DISCID=d60eff10
DTITLE=Party Tyme Karaoke - SYB1083 Country Hits 3
DYEAR=2005
DGENRE=Karaoke
TTITLE0=Gretchen Wilson - Redneck Woman
TTITLE1=Big and Rich - Save A Horse (Ride A Cowboy)
TTITLE2=Tim McGraw - Live Like You Were Dying
TTITLE3=Terri Clarke - Girls Lie Too
TTITLE4=Toby Keith - I Love This Bar
TTITLE5=Alan Jackson - It's Five O'Clock Somewhere
TTITLE6=Shania Twain - Forever And For Always
TTITLE7=Kenny Chesney - There Goes My Life
TTITLE8=Keith Urban - Days Go By
TTITLE9=Gretchen Wilson - Here For The Party
TTITLE10=Toby Keith and Willie Nelson - Beer For My Horses
TTITLE11=Martina McBride - In My Daughter's Eyes
TTITLE12=Kenny Chesney - When The Sun Goes Down
TTITLE13=Sara Evans - Suds In The Bucket
TTITLE14=Darryl Worley - Have You Forgotten
TTITLE15=Mark Wills - 19 Somethin' (Nineteen Something)
EXTD=CD+G Karaoke Disc
EXTT0=
EXTT1=
EXTT2=
EXTT3=
EXTT4=
EXTT5=
EXTT6=
EXTT7=
EXTT8=
EXTT9=
EXTT10=
EXTT11=
EXTT12=
EXTT13=
EXTT14=
EXTT15=
PLAYORDER=
